<svg version="1.1" id="Layer_1" xmlns="http://www.w3.org/2000/svg" xmlns:xlink="http://www.w3.org/1999/xlink" x="0px" y="0px"
	 width="100%" viewBox="0 0 336 339" enable-background="new 0 0 336 339" xml:space="preserve">
<path fill="#000000" opacity="1.000000" stroke="none" 
	d="
M1.000000,124.000000 
	C1.000000,82.666672 1.000000,41.833347 1.000000,1.000016 
	C112.999969,1.000011 224.999939,1.000011 336.999939,1.000005 
	C336.999939,113.999947 336.999939,226.999893 336.999969,339.999878 
	C225.000061,339.999939 113.000137,339.999939 1.000101,339.999969 
	C1.000000,268.166656 1.000000,196.333328 1.000000,124.000000 
M16.470629,141.072342 
	C16.369446,141.373322 16.268261,141.674316 16.030712,142.645966 
	C16.076368,143.097610 16.122026,143.549271 16.027674,144.797684 
	C15.740488,146.864868 15.453302,148.932053 15.025591,151.841400 
	C14.978887,153.547028 14.932182,155.252640 14.185490,157.439865 
	C13.126360,171.062607 11.797308,184.671585 11.100707,198.312836 
	C10.616866,207.787689 10.992457,217.306976 11.005099,226.806396 
	C11.010558,230.908157 14.196455,234.997147 17.255373,234.895889 
	C20.863188,234.776489 23.479897,231.363449 24.053730,227.133881 
	C25.985214,212.897354 27.121620,198.444611 30.465967,184.532227 
	C36.215397,160.614807 44.762455,137.573013 57.342583,116.250725 
	C69.469398,95.696770 83.773087,77.231255 105.571136,65.851242 
	C114.252327,61.319096 123.429314,58.740887 133.076675,58.063019 
	C147.584946,57.043602 161.146255,61.134167 174.288910,66.777718 
	C177.642715,68.217857 180.302032,67.551247 182.453445,64.951332 
	C184.601898,62.355034 184.657715,59.327164 182.293060,56.914722 
	C177.667633,52.195824 172.779404,47.734512 167.383026,42.870239 
	C162.922409,39.526184 158.461777,36.182125 153.995102,32.371849 
	C154.022034,32.052490 153.960632,31.751123 153.390335,30.947248 
	C152.274597,30.259594 151.158844,29.571938 149.790909,28.330187 
	C149.208710,28.182409 148.626495,28.034632 147.741882,27.242331 
	C134.901672,18.925669 121.604446,11.726399 105.094917,10.027763 
	C99.372894,10.534789 93.458519,10.288545 87.965195,11.691216 
	C71.999168,15.768001 60.295422,25.994806 50.971645,39.197697 
	C38.968773,56.194305 31.712568,75.369377 26.174513,95.178146 
	C23.168221,105.931175 21.459881,117.047073 19.000835,128.802673 
	C18.389378,132.526749 17.777920,136.250839 17.013426,140.445282 
	C17.013426,140.445282 16.915434,140.930130 16.974115,140.950592 
	C16.974115,140.950592 16.958355,140.890472 16.470629,141.072342 
M87.072701,333.530487 
	C87.373795,333.631439 87.674896,333.732391 88.826889,333.973511 
	C92.212715,334.260162 95.598534,334.546814 99.906555,334.973724 
	C104.271255,334.926147 108.635963,334.878540 113.811142,334.971497 
	C117.207298,334.925446 120.603447,334.879364 124.828323,334.943359 
	C126.577827,334.628754 128.327713,334.316315 130.076752,333.999146 
	C134.051102,333.278473 138.025055,332.555511 142.827621,331.973358 
	C147.218094,330.927002 151.608551,329.880646 156.811676,328.972229 
	C164.890488,326.683563 172.969284,324.394897 181.839401,322.012665 
	C192.216446,318.343140 202.746826,315.050568 212.931366,310.907837 
	C225.409744,305.832031 237.753952,300.363373 249.863510,294.463837 
	C259.493774,289.772186 268.821381,284.400940 277.950928,278.790497 
	C279.710602,277.709106 280.846497,274.003296 280.555725,271.727173 
	C280.340790,270.044800 277.516266,267.892365 275.531586,267.471436 
	C273.645996,267.071594 271.329956,268.616882 269.222565,269.361572 
	C256.373108,273.902374 243.768417,279.390839 230.620697,282.765778 
	C215.370392,286.680511 199.644852,288.743927 183.502609,291.935883 
	C182.334915,292.012634 181.167206,292.089417 179.080048,292.025909 
	C175.586914,292.026611 171.976303,291.449585 168.621765,292.131775 
	C156.522141,294.592438 144.712631,291.762512 132.911850,290.293304 
	C120.825279,288.788513 109.333298,284.832001 98.437927,279.080811 
	C88.828651,274.008484 80.705421,267.319214 74.014671,258.889923 
	C65.621185,248.315460 61.818558,235.742142 59.088367,222.799515 
	C58.176235,218.475494 57.739033,214.051285 56.994434,209.068604 
	C50.914791,205.017853 47.377453,206.199677 44.977226,213.907562 
	C43.726097,217.925339 42.340363,221.934128 41.526051,226.048050 
	C39.888008,234.323486 38.599747,242.668137 37.014744,251.687592 
	C36.732296,252.791946 36.449848,253.896301 36.026974,255.825943 
	C36.073860,257.217072 36.120747,258.608215 36.026997,260.906647 
	C36.073437,264.271118 36.119873,267.635620 36.026268,271.879852 
	C36.072941,274.253021 36.119610,276.626160 36.054691,279.818390 
	C37.334240,284.895020 38.613785,289.971680 39.985214,295.769318 
	C40.641632,297.216461 41.298050,298.663635 42.012093,300.836487 
	C43.003937,302.859741 43.700356,305.111938 45.052132,306.856232 
	C47.495110,310.008667 50.329540,312.857727 53.636646,316.195068 
	C54.917683,317.736725 56.198719,319.278412 57.498920,320.824432 
	C57.498920,320.824432 57.512726,320.838043 57.855968,321.281097 
	C58.570744,321.798828 59.285522,322.316589 60.637554,323.146912 
	C64.497467,325.287659 68.357384,327.428406 72.582230,329.902344 
	C72.582230,329.902344 73.069641,329.821075 73.674431,329.982330 
	C78.097702,331.020508 82.520973,332.058685 86.958282,333.032440 
	C86.958282,333.032440 86.893005,333.041809 87.072701,333.530487 
M273.969055,163.043976 
	C273.969055,163.043976 273.903839,163.055542 273.984100,163.907745 
	C274.712646,167.605560 275.441223,171.303375 276.026520,175.927124 
	C275.978668,181.604782 275.930817,187.282440 275.317047,193.342194 
	C275.384583,194.228439 275.644806,195.150604 275.487335,195.994888 
	C274.679443,200.327042 273.764038,204.639160 272.411041,209.117859 
	C272.329926,209.412018 272.248840,209.706161 271.853943,210.645737 
	C270.889404,212.724686 269.924866,214.803635 268.473145,217.069473 
	C268.371002,217.371323 268.268829,217.673172 268.013641,218.687241 
	C266.638000,221.110794 265.262390,223.534348 263.332123,226.209396 
	C263.184357,226.791779 263.036591,227.374146 262.281433,228.220657 
	C261.151947,229.797562 260.022430,231.374451 258.187347,233.012283 
	C255.969040,235.054611 253.839844,237.205338 251.514221,239.117142 
	C246.355652,243.357849 240.891586,247.256531 236.019119,251.795990 
	C234.710495,253.015198 234.199997,256.409302 234.926910,258.125885 
	C235.659821,259.856689 238.536301,261.980408 240.212387,261.777191 
	C246.216736,261.049316 252.110382,259.408203 258.845093,258.016449 
	C260.247284,257.676941 261.667145,257.397156 263.048920,256.988617 
	C275.734222,253.238007 288.167084,248.874237 299.750427,241.756577 
	C299.750427,241.756577 299.835327,241.494415 300.390808,241.124786 
	C304.083435,239.456833 307.993164,238.037003 309.145233,233.465317 
	C314.705231,233.813522 316.513977,228.822739 319.517334,225.821320 
	C326.241394,219.101547 330.328705,210.701599 331.905060,201.404221 
	C333.871490,189.806534 333.285645,178.400085 329.213928,167.025345 
	C324.893036,154.954269 319.721375,143.565414 311.010406,133.217010 
	C310.899963,132.573883 311.008301,131.748566 310.646820,131.314529 
	C303.402374,122.616020 295.430481,114.429771 289.005005,105.169022 
	C282.543396,95.856216 271.646423,91.392448 265.618591,81.901756 
	C265.538910,81.776253 265.325378,81.744133 265.199921,81.638115 
	C256.427612,74.223930 247.835983,66.581329 238.830627,59.462097 
	C231.835831,53.932335 224.325104,49.055206 216.766678,43.266163 
	C212.213501,40.161201 207.660339,37.056240 202.837234,33.380714 
	C202.239319,33.216316 201.641388,33.051918 200.719101,32.276546 
	C197.324341,30.201149 194.116608,27.645218 190.466934,26.224838 
	C188.159760,25.326927 185.193008,26.123795 182.242691,26.256153 
	C182.242691,26.256153 182.154831,26.538118 181.603806,26.952959 
	C178.575027,31.505341 180.621033,35.777161 186.971619,38.031013 
	C186.971619,38.031013 186.905197,38.060947 187.139999,38.630592 
	C188.054321,39.433674 188.968628,40.236755 190.176254,41.669380 
	C202.842499,54.287823 216.155701,66.334702 227.969070,79.706604 
	C237.322678,90.294197 244.836166,102.507423 253.240982,114.694160 
	C256.151794,120.077415 259.005096,125.493172 262.015930,130.819885 
	C262.723663,132.072037 263.963287,133.023560 264.994446,134.924988 
	C267.291138,141.964233 269.587860,149.003479 271.981873,156.754318 
	C272.376923,157.836197 272.771973,158.918076 273.031982,160.666016 
	C273.077148,161.114548 273.122314,161.563080 273.116333,162.535049 
	C273.398163,162.726639 273.679962,162.918243 273.969055,163.043976 
z"/>
<path fill="#F07C01" opacity="1.000000" stroke="none" 
	d="
M148.044296,27.886856 
	C148.626495,28.034632 149.208710,28.182409 149.981903,28.988640 
	C151.385559,30.253979 152.598251,30.860865 153.810928,31.467749 
	C153.960632,31.751123 154.022034,32.052490 154.000244,33.000458 
	C154.588257,35.417091 155.481339,38.801853 155.708252,38.757771 
	C160.407471,37.844795 161.958740,41.800598 164.438461,44.162376 
	C166.381744,46.013226 167.509369,46.000832 167.999954,43.166573 
	C172.779404,47.734512 177.667633,52.195824 182.293060,56.914722 
	C184.657715,59.327164 184.601898,62.355034 182.453445,64.951332 
	C180.302032,67.551247 177.642715,68.217857 174.288910,66.777718 
	C161.146255,61.134167 147.584946,57.043602 133.076675,58.063019 
	C123.429314,58.740887 114.252327,61.319096 105.571136,65.851242 
	C83.773087,77.231255 69.469398,95.696770 57.342583,116.250725 
	C44.762455,137.573013 36.215397,160.614807 30.465967,184.532227 
	C27.121620,198.444611 25.985214,212.897354 24.053730,227.133881 
	C23.479897,231.363449 20.863188,234.776489 17.255373,234.895889 
	C14.196455,234.997147 11.010558,230.908157 11.005099,226.806396 
	C10.992457,217.306976 10.616866,207.787689 11.100707,198.312836 
	C11.797308,184.671585 13.126360,171.062607 14.847307,157.052521 
	C17.635574,154.640869 17.479828,152.754730 15.166117,150.999237 
	C15.453302,148.932053 15.740488,146.864868 16.415062,144.387131 
	C17.582018,143.530151 18.361586,143.083710 19.141151,142.637268 
	C18.399244,142.068222 17.657339,141.499176 16.915434,140.930130 
	C16.915434,140.930130 17.013426,140.445282 17.350824,139.987305 
	C18.457447,137.917755 19.519793,136.375809 19.923197,134.677322 
	C20.451508,132.452988 23.279865,129.755478 19.166077,127.999298 
	C21.459881,117.047073 23.168221,105.931175 26.174513,95.178146 
	C31.712568,75.369377 38.968773,56.194305 50.971645,39.197697 
	C60.295422,25.994806 71.999168,15.768001 87.965195,11.691216 
	C93.458519,10.288545 99.372894,10.534789 105.686249,10.397654 
	C109.889984,12.507508 113.389526,15.385319 117.137650,15.757105 
	C125.665718,16.603031 132.229874,20.454769 138.007767,26.289524 
	C140.969940,29.280859 144.152405,30.786184 148.044296,27.886856 
z"/>
<path fill="#F07C01" opacity="1.000000" stroke="none" 
	d="
M184.125610,291.610962 
	C199.644852,288.743927 215.370392,286.680511 230.620697,282.765778 
	C243.768417,279.390839 256.373108,273.902374 269.222565,269.361572 
	C271.329956,268.616882 273.645996,267.071594 275.531586,267.471436 
	C277.516266,267.892365 280.340790,270.044800 280.555725,271.727173 
	C280.846497,274.003296 279.710602,277.709106 277.950928,278.790497 
	C268.821381,284.400940 259.493774,289.772186 249.863510,294.463837 
	C237.753952,300.363373 225.409744,305.832031 212.931366,310.907837 
	C202.746826,315.050568 192.216446,318.343140 181.123718,321.854370 
	C179.456024,321.530945 178.478165,321.135284 177.556259,321.238708 
	C172.278488,321.830597 166.974106,322.326599 161.760910,323.296631 
	C158.909119,323.827332 155.891022,324.892334 155.999023,328.834259 
	C151.608551,329.880646 147.218094,330.927002 142.258789,331.628784 
	C137.368073,330.864227 133.052017,330.363525 128.722412,330.050537 
	C125.416595,329.811584 123.868423,331.554108 123.999603,334.833282 
	C120.603447,334.879364 117.207298,334.925446 113.279404,334.566742 
	C108.754341,333.250336 104.777618,332.235107 100.741913,331.587677 
	C100.339966,331.523193 99.578796,333.697968 98.984360,334.833435 
	C95.598534,334.546814 92.212715,334.260162 88.232155,333.756775 
	C87.403038,333.353363 87.154900,333.187317 86.893005,333.041809 
	C86.893005,333.041809 86.958282,333.032440 86.852394,332.711609 
	C83.642220,329.237915 77.191261,328.025879 73.069641,329.821075 
	C73.069641,329.821075 72.582230,329.902344 72.529404,329.297180 
	C72.172043,327.659698 72.013657,325.804443 71.540680,325.720459 
	C65.884987,324.715912 64.478020,319.245758 61.268829,315.972473 
	C62.019382,315.608795 62.501259,315.272644 62.983139,314.936523 
	C62.877022,314.818787 62.684292,314.592987 62.677097,314.598755 
	C62.108696,315.054199 61.554821,315.527802 60.611336,316.086060 
	C59.308472,317.721405 58.394115,319.270752 57.479759,320.820068 
	C56.198719,319.278412 54.917683,317.736725 53.318478,315.584625 
	C51.839905,312.323761 55.875809,306.505280 48.441444,307.429840 
	C47.674900,305.121338 46.872345,302.596191 45.997898,300.096161 
	C44.659866,296.270813 43.294086,297.593109 41.954468,300.110779 
	C41.298050,298.663635 40.641632,297.216461 40.144279,295.088989 
	C40.327328,290.395630 40.690601,286.338715 40.180935,282.394623 
	C40.015106,281.111359 37.569286,280.122711 36.166279,278.999329 
	C36.119610,276.626160 36.072941,274.253021 36.386799,271.270386 
	C37.644951,268.952759 38.733013,267.315063 39.397358,265.520508 
	C40.506039,262.525696 39.755390,260.369293 36.167633,259.999359 
	C36.120747,258.608215 36.073860,257.217072 36.437901,255.396698 
	C37.703377,253.947571 38.557926,252.927689 39.412476,251.907837 
	C38.664032,251.599976 37.915592,251.292114 37.167152,250.984253 
	C38.599747,242.668137 39.888008,234.323486 41.526051,226.048050 
	C42.340363,221.934128 43.726097,217.925339 44.977226,213.907562 
	C47.377453,206.199677 50.914791,205.017853 56.994434,209.068604 
	C57.739033,214.051285 58.176235,218.475494 59.088367,222.799515 
	C61.818558,235.742142 65.621185,248.315460 74.014671,258.889923 
	C80.705421,267.319214 88.828651,274.008484 98.437927,279.080811 
	C109.333298,284.832001 120.825279,288.788513 132.911850,290.293304 
	C144.712631,291.762512 156.522141,294.592438 168.621765,292.131775 
	C171.976303,291.449585 175.586914,292.026611 179.639679,292.416931 
	C181.665146,293.604767 183.131012,294.401581 184.596863,295.198364 
	C184.439789,294.002563 184.282700,292.806763 184.125610,291.610962 
M55.265171,305.926758 
	C55.122879,306.026611 54.980587,306.126465 54.838295,306.226318 
	C54.977509,306.198029 55.116722,306.169708 55.265171,305.926758 
M37.502571,257.524628 
	C37.502571,257.524628 37.489826,257.487122 37.502571,257.524628 
z"/>
<path fill="#F07C01" opacity="1.000000" stroke="none" 
	d="
M258.045898,258.112427 
	C252.110382,259.408203 246.216736,261.049316 240.212387,261.777191 
	C238.536301,261.980408 235.659821,259.856689 234.926910,258.125885 
	C234.199997,256.409302 234.710495,253.015198 236.019119,251.795990 
	C240.891586,247.256531 246.355652,243.357849 251.514221,239.117142 
	C253.839844,237.205338 255.969040,235.054611 258.798126,233.157379 
	C260.287720,233.926056 261.166504,234.549652 263.319916,236.077698 
	C263.131256,232.523727 263.010040,230.240128 262.888824,227.956528 
	C263.036591,227.374146 263.184357,226.791779 263.983765,226.060791 
	C269.875671,224.458252 274.589996,215.807129 272.970978,210.554398 
	C272.895721,210.310364 272.444092,210.182358 272.167755,210.000320 
	C272.248840,209.706161 272.329926,209.412018 272.991486,208.976593 
	C274.778839,208.369919 275.985748,207.904495 276.060272,207.875763 
	C276.806213,203.986725 277.715454,201.041626 277.806946,198.071320 
	C277.858734,196.388931 276.568665,194.665207 275.882965,192.960098 
	C275.930817,187.282440 275.978668,181.604782 276.386292,175.295105 
	C280.925751,169.538498 277.177124,166.355225 273.903839,163.055542 
	C273.903839,163.055542 273.969055,163.043976 273.848572,162.882660 
	C273.560425,162.469620 273.373535,162.233047 273.167480,162.011612 
	C273.122314,161.563080 273.077148,161.114548 273.342926,160.203125 
	C273.064087,158.507736 272.474335,157.275223 271.884552,156.042725 
	C269.587860,149.003479 267.291138,141.964233 264.980713,134.111816 
	C263.058807,128.827713 261.474548,124.175613 259.115356,119.956902 
	C257.796906,117.599304 255.192001,115.961121 253.166779,113.998772 
	C244.836166,102.507423 237.322678,90.294197 227.969070,79.706604 
	C216.155701,66.334702 202.842499,54.287823 190.310181,41.224121 
	C191.827667,36.535427 188.352753,38.618057 186.905197,38.060947 
	C186.905197,38.060947 186.971619,38.031013 186.935608,37.684486 
	C185.317993,33.738018 183.736404,30.138069 182.154816,26.538120 
	C182.154831,26.538118 182.242691,26.256153 182.771881,26.368172 
	C185.399841,27.739162 187.653229,28.801083 189.563675,30.300064 
	C193.038025,33.026100 196.643738,34.553566 201.043472,32.887520 
	C201.641388,33.051918 202.239319,33.216316 202.784027,33.944695 
	C202.679184,35.286423 202.354050,36.631279 202.616486,36.757839 
	C207.448547,39.088200 210.615021,44.837090 217.043686,43.888000 
	C224.325104,49.055206 231.835831,53.932335 238.830627,59.462097 
	C247.835983,66.581329 256.427612,74.223930 265.199921,81.638115 
	C265.325378,81.744133 265.538910,81.776253 265.618591,81.901756 
	C271.646423,91.392448 282.543396,95.856216 289.005005,105.169022 
	C295.430481,114.429771 303.402374,122.616020 310.646820,131.314529 
	C311.008301,131.748566 310.899963,132.573883 310.815735,133.759125 
	C310.348694,134.703552 309.747650,135.256729 309.852753,135.485748 
	C311.642578,139.385345 313.347565,143.340057 315.420074,147.089783 
	C318.241028,152.193466 321.747467,156.754562 323.900635,162.424881 
	C326.850616,170.193558 329.759644,177.855774 330.490723,186.128448 
	C330.731354,188.851715 329.557251,191.671951 329.335602,194.472031 
	C329.117462,197.228378 330.136444,200.385681 329.120667,202.716965 
	C326.470154,208.799805 323.517212,214.893890 319.681458,220.267197 
	C317.108459,223.871597 312.714966,226.135101 309.330811,229.212753 
	C305.463745,232.729645 299.708344,234.866089 299.835327,241.494415 
	C299.835327,241.494415 299.750427,241.756577 299.226868,241.657440 
	C295.100952,242.960541 291.548065,244.510757 287.886414,245.735916 
	C278.706512,248.807419 269.451508,251.656921 260.304565,254.820862 
	C259.293182,255.170700 258.786621,256.980011 258.045898,258.112427 
z"/>
<path fill="#EF7C03" opacity="1.000000" stroke="none" 
	d="
M300.113068,241.309601 
	C299.708344,234.866089 305.463745,232.729645 309.330811,229.212753 
	C312.714966,226.135101 317.108459,223.871597 319.681458,220.267197 
	C323.517212,214.893890 326.470154,208.799805 329.120667,202.716965 
	C330.136444,200.385681 329.117462,197.228378 329.335602,194.472031 
	C329.557251,191.671951 330.731354,188.851715 330.490723,186.128448 
	C329.759644,177.855774 326.850616,170.193558 323.900635,162.424881 
	C321.747467,156.754562 318.241028,152.193466 315.420074,147.089783 
	C313.347565,143.340057 311.642578,139.385345 309.852753,135.485748 
	C309.747650,135.256729 310.348694,134.703552 310.858032,134.127625 
	C319.721375,143.565414 324.893036,154.954269 329.213928,167.025345 
	C333.285645,178.400085 333.871490,189.806534 331.905060,201.404221 
	C330.328705,210.701599 326.241394,219.101547 319.517334,225.821320 
	C316.513977,228.822739 314.705231,233.813522 309.145233,233.465317 
	C307.993164,238.037003 304.083435,239.456833 300.113068,241.309601 
z"/>
<path fill="#EF7D03" opacity="1.000000" stroke="none" 
	d="
M147.893097,27.564592 
	C144.152405,30.786184 140.969940,29.280859 138.007767,26.289524 
	C132.229874,20.454769 125.665718,16.603031 117.137650,15.757105 
	C113.389526,15.385319 109.889984,12.507508 106.138535,10.468483 
	C121.604446,11.726399 134.901672,18.925669 147.893097,27.564592 
z"/>
<path fill="#EF7C03" opacity="1.000000" stroke="none" 
	d="
M258.445496,258.064453 
	C258.786621,256.980011 259.293182,255.170700 260.304565,254.820862 
	C269.451508,251.656921 278.706512,248.807419 287.886414,245.735916 
	C291.548065,244.510757 295.100952,242.960541 299.095215,241.698059 
	C288.167084,248.874237 275.734222,253.238007 263.048920,256.988617 
	C261.667145,257.397156 260.247284,257.676941 258.445496,258.064453 
z"/>
<path fill="#EF7D03" opacity="1.000000" stroke="none" 
	d="
M156.405350,328.903259 
	C155.891022,324.892334 158.909119,323.827332 161.760910,323.296631 
	C166.974106,322.326599 172.278488,321.830597 177.556259,321.238708 
	C178.478165,321.135284 179.456024,321.530945 180.728058,321.901184 
	C172.969284,324.394897 164.890488,326.683563 156.405350,328.903259 
z"/>
<path fill="#EF7C03" opacity="1.000000" stroke="none" 
	d="
M41.983284,300.473633 
	C43.294086,297.593109 44.659866,296.270813 45.997898,300.096161 
	C46.872345,302.596191 47.674900,305.121338 48.441444,307.429840 
	C55.875809,306.505280 51.839905,312.323761 53.000408,315.403809 
	C50.329540,312.857727 47.495110,310.008667 45.052132,306.856232 
	C43.700356,305.111938 43.003937,302.859741 41.983284,300.473633 
z"/>
<path fill="#EF7C03" opacity="1.000000" stroke="none" 
	d="
M57.489342,320.822266 
	C58.394115,319.270752 59.308472,317.721405 60.611412,316.086060 
	C61.000000,316.000000 61.000153,316.000000 61.000153,316.000000 
	C64.478020,319.245758 65.884987,324.715912 71.540680,325.720459 
	C72.013657,325.804443 72.172043,327.659698 72.346939,329.130615 
	C68.357384,327.428406 64.497467,325.287659 60.256660,322.675659 
	C59.088093,321.748962 58.300415,321.293488 57.512730,320.838013 
	C57.512726,320.838043 57.498920,320.824432 57.489342,320.822266 
z"/>
<path fill="#EF7C03" opacity="1.000000" stroke="none" 
	d="
M200.881287,32.582031 
	C196.643738,34.553566 193.038025,33.026100 189.563675,30.300064 
	C187.653229,28.801083 185.399841,27.739162 182.911591,26.320351 
	C185.193008,26.123795 188.159760,25.326927 190.466934,26.224838 
	C194.116608,27.645218 197.324341,30.201149 200.881287,32.582031 
z"/>
<path fill="#EF7D03" opacity="1.000000" stroke="none" 
	d="
M124.413963,334.888306 
	C123.868423,331.554108 125.416595,329.811584 128.722412,330.050537 
	C133.052017,330.363525 137.368073,330.864227 141.844559,331.558838 
	C138.025055,332.555511 134.051102,333.278473 130.076752,333.999146 
	C128.327713,334.316315 126.577827,334.628754 124.413963,334.888306 
z"/>
<path fill="#EF7D03" opacity="1.000000" stroke="none" 
	d="
M167.691498,43.018410 
	C167.509369,46.000832 166.381744,46.013226 164.438461,44.162376 
	C161.958740,41.800598 160.407471,37.844795 155.708252,38.757771 
	C155.481339,38.801853 154.588257,35.417091 154.003281,33.233566 
	C158.461777,36.182125 162.922409,39.526184 167.691498,43.018410 
z"/>
<path fill="#EE7D04" opacity="1.000000" stroke="none" 
	d="
M253.203888,114.346466 
	C255.192001,115.961121 257.796906,117.599304 259.115356,119.956902 
	C261.474548,124.175613 263.058807,128.827713 264.962585,133.706024 
	C263.963287,133.023560 262.723663,132.072037 262.015930,130.819885 
	C259.005096,125.493172 256.151794,120.077415 253.203888,114.346466 
z"/>
<path fill="#EF7C03" opacity="1.000000" stroke="none" 
	d="
M272.010864,210.323029 
	C272.444092,210.182358 272.895721,210.310364 272.970978,210.554398 
	C274.589996,215.807129 269.875671,224.458252 264.261108,225.935043 
	C265.262390,223.534348 266.638000,221.110794 268.236816,218.159821 
	C268.646118,217.395355 268.812897,217.145432 268.960327,216.882584 
	C269.924866,214.803635 270.889404,212.724686 272.010864,210.323029 
z"/>
<path fill="#EF7C03" opacity="1.000000" stroke="none" 
	d="
M216.905182,43.577080 
	C210.615021,44.837090 207.448547,39.088200 202.616486,36.757839 
	C202.354050,36.631279 202.679184,35.286423 202.918991,34.229977 
	C207.660339,37.056240 212.213501,40.161201 216.905182,43.577080 
z"/>
<path fill="#EF7D03" opacity="1.000000" stroke="none" 
	d="
M99.445457,334.903564 
	C99.578796,333.697968 100.339966,331.523193 100.741913,331.587677 
	C104.777618,332.235107 108.754341,333.250336 112.874161,334.496460 
	C108.635963,334.878540 104.271255,334.926147 99.445457,334.903564 
z"/>
<path fill="#EF7C03" opacity="1.000000" stroke="none" 
	d="
M275.600006,193.151154 
	C276.568665,194.665207 277.858734,196.388931 277.806946,198.071320 
	C277.715454,201.041626 276.806213,203.986725 276.060272,207.875763 
	C275.985748,207.904495 274.778839,208.369919 273.229065,208.896820 
	C273.764038,204.639160 274.679443,200.327042 275.487335,195.994888 
	C275.644806,195.150604 275.384583,194.228439 275.600006,193.151154 
z"/>
<path fill="#EF7C03" opacity="1.000000" stroke="none" 
	d="
M36.110485,279.408875 
	C37.569286,280.122711 40.015106,281.111359 40.180935,282.394623 
	C40.690601,286.338715 40.327328,290.395630 40.098335,294.728516 
	C38.613785,289.971680 37.334240,284.895020 36.110485,279.408875 
z"/>
<path fill="#EF7C03" opacity="1.000000" stroke="none" 
	d="
M181.879303,26.745541 
	C183.736404,30.138069 185.317993,33.738018 186.920532,37.717659 
	C180.621033,35.777161 178.575027,31.505341 181.879303,26.745541 
z"/>
<path fill="#EE7D03" opacity="1.000000" stroke="none" 
	d="
M273.943970,163.481644 
	C277.177124,166.355225 280.925751,169.538498 276.457916,174.832153 
	C275.441223,171.303375 274.712646,167.605560 273.943970,163.481644 
z"/>
<path fill="#EF7C03" opacity="1.000000" stroke="none" 
	d="
M73.372040,329.901703 
	C77.191261,328.025879 83.642220,329.237915 86.845367,332.743835 
	C82.520973,332.058685 78.097702,331.020508 73.372040,329.901703 
z"/>
<path fill="#EF7C03" opacity="1.000000" stroke="none" 
	d="
M36.097313,260.453003 
	C39.755390,260.369293 40.506039,262.525696 39.397358,265.520508 
	C38.733013,267.315063 37.644951,268.952759 36.456818,270.830505 
	C36.119873,267.635620 36.073437,264.271118 36.097313,260.453003 
z"/>
<path fill="#EF7C03" opacity="1.000000" stroke="none" 
	d="
M19.083454,128.400986 
	C23.279865,129.755478 20.451508,132.452988 19.923197,134.677322 
	C19.519793,136.375809 18.457447,137.917755 17.427341,139.752136 
	C17.777920,136.250839 18.389378,132.526749 19.083454,128.400986 
z"/>
<path fill="#EF7C03" opacity="1.000000" stroke="none" 
	d="
M262.585144,228.088593 
	C263.010040,230.240128 263.131256,232.523727 263.319916,236.077698 
	C261.166504,234.549652 260.287720,233.926056 259.150940,233.126892 
	C260.022430,231.374451 261.151947,229.797562 262.585144,228.088593 
z"/>
<path fill="#EF7D02" opacity="1.000000" stroke="none" 
	d="
M183.814117,291.773438 
	C184.282700,292.806763 184.439789,294.002563 184.596863,295.198364 
	C183.131012,294.401581 181.665146,293.604767 180.099396,292.487061 
	C181.167206,292.089417 182.334915,292.012634 183.814117,291.773438 
z"/>
<path fill="#EF7C03" opacity="1.000000" stroke="none" 
	d="
M37.090950,251.335922 
	C37.915592,251.292114 38.664032,251.599976 39.412476,251.907837 
	C38.557926,252.927689 37.703377,253.947571 36.508114,254.984039 
	C36.449848,253.896301 36.732296,252.791946 37.090950,251.335922 
z"/>
<path fill="#EF7C03" opacity="1.000000" stroke="none" 
	d="
M15.095854,151.420319 
	C17.479828,152.754730 17.635574,154.640869 15.197300,156.811722 
	C14.932182,155.252640 14.978887,153.547028 15.095854,151.420319 
z"/>
<path fill="#EF7C03" opacity="1.000000" stroke="none" 
	d="
M187.022598,38.345772 
	C188.352753,38.618057 191.827667,36.535427 190.163513,40.909351 
	C188.968628,40.236755 188.054321,39.433674 187.022598,38.345772 
z"/>
<path fill="#EF7C03" opacity="1.000000" stroke="none" 
	d="
M16.944775,140.940369 
	C17.657339,141.499176 18.399244,142.068222 19.141151,142.637268 
	C18.361586,143.083710 17.582018,143.530151 16.485067,143.988739 
	C16.122026,143.549271 16.076368,143.097610 16.245152,142.140778 
	C16.644903,141.399979 16.811159,141.151611 16.958355,140.890472 
	C16.958355,140.890472 16.974115,140.950592 16.944775,140.940369 
z"/>
<path fill="#EE7D03" opacity="1.000000" stroke="none" 
	d="
M271.933228,156.398529 
	C272.474335,157.275223 273.064087,158.507736 273.410461,159.870087 
	C272.771973,158.918076 272.376923,157.836197 271.933228,156.398529 
z"/>
<path fill="#EF7D03" opacity="1.000000" stroke="none" 
	d="
M153.600632,31.207499 
	C152.598251,30.860865 151.385559,30.253979 150.108002,29.265690 
	C151.158844,29.571938 152.274597,30.259594 153.600632,31.207499 
z"/>
<path fill="#F07C01" opacity="1.000000" stroke="none" 
	d="
M57.684349,321.059570 
	C58.300415,321.293488 59.088093,321.748962 59.938034,322.519379 
	C59.285522,322.316589 58.570744,321.798828 57.684349,321.059570 
z"/>
<path fill="#EE7D03" opacity="1.000000" stroke="none" 
	d="
M273.141907,162.273331 
	C273.373535,162.233047 273.560425,162.469620 273.844971,162.915588 
	C273.679962,162.918243 273.398163,162.726639 273.141907,162.273331 
z"/>
<path fill="#F07C01" opacity="1.000000" stroke="none" 
	d="
M16.714493,140.981415 
	C16.811159,141.151611 16.644903,141.399979 16.313335,141.805435 
	C16.268261,141.674316 16.369446,141.373322 16.714493,140.981415 
z"/>
<path fill="#F07C01" opacity="1.000000" stroke="none" 
	d="
M268.716736,216.976028 
	C268.812897,217.145432 268.646118,217.395355 268.313354,217.803711 
	C268.268829,217.673172 268.371002,217.371323 268.716736,216.976028 
z"/>
<path fill="#EF7C03" opacity="1.000000" stroke="none" 
	d="
M86.982849,333.286133 
	C87.154900,333.187317 87.403038,333.353363 87.806709,333.686676 
	C87.674896,333.732391 87.373795,333.631439 86.982849,333.286133 
z"/>
<path fill="#EF7C03" opacity="1.000000" stroke="none" 
	d="
M60.999924,316.000000 
	C61.554821,315.527802 62.108696,315.054199 62.677097,314.598755 
	C62.684292,314.592987 62.877022,314.818787 62.983139,314.936523 
	C62.501259,315.272644 62.019382,315.608795 61.268829,315.972473 
	C61.000153,316.000000 61.000000,316.000000 60.999924,316.000000 
z"/>
<path fill="#EF7C03" opacity="1.000000" stroke="none" 
	d="
M55.260551,306.034088 
	C55.116722,306.169708 54.977509,306.198029 54.838295,306.226318 
	C54.980587,306.126465 55.122879,306.026611 55.260551,306.034088 
z"/>
<path fill="#EF7C03" opacity="1.000000" stroke="none" 
	d="
M37.496201,257.505859 
	C37.489826,257.487122 37.502571,257.524628 37.496201,257.505859 
z"/>
</svg>